STARTFONT 2.1
FONT pelm.latin1.9
SIZE 16 72 72
FONTBOUNDINGBOX 9 16 0 -3
STARTPROPERTIES 4
FONT_DESCENT 3
FONT_ASCENT 13
DEFAULT_CHAR 0
COPYRIGHT "Copyright (C) 1985 Bigelow & Holmes Inc. All rights reserved."
ENDPROPERTIES
CHARS 256
STARTCHAR ch-0
ENCODING 0
SWIDTH 562 0
DWIDTH 9 0
BBX 9 16 0 -3
BITMAP
0000
0000
1e00
0780
4380
6380
ff80
4180
0f00
0f80
0600
0e00
0e00
0000
0000
0000
ENDCHAR
STARTCHAR ch-1
ENCODING 1
SWIDTH 562 0
DWIDTH 9 0
BBX 9 16 0 -3
BITMAP
0000
0000
ff00
ff00
ff00
ff00
ff00
ff00
ff00
ff00
ff00
ff00
ff00
ff00
ff00
0000
ENDCHAR
STARTCHAR ch-2
ENCODING 2
SWIDTH 562 0
DWIDTH 9 0
BBX 9 16 0 -3
BITMAP
0000
7000
8000
e000
1000
e000
1c00
0800
0800
0800
0800
0480
0480
0300
0480
0480
ENDCHAR
STARTCHAR ch-3
ENCODING 3
SWIDTH 562 0
DWIDTH 9 0
BBX 9 16 0 -3
BITMAP
0000
e000
8000
e000
8000
e000
1c00
0800
0800
0800
0800
0480
0480
0300
0480
0480
ENDCHAR
STARTCHAR ch-4
ENCODING 4
SWIDTH 562 0
DWIDTH 9 0
BBX 9 16 0 -3
BITMAP
0000
e000
8000
e000
8000
e000
1800
2400
2400
2400
1800
0380
0100
0100
0100
0100
ENDCHAR
STARTCHAR ch-5
ENCODING 5
SWIDTH 562 0
DWIDTH 9 0
BBX 9 16 0 -3
BITMAP
0000
e000
8000
e000
8000
e000
2400
3400
2c00
2400
2400
0600
0900
0900
0b00
0680
ENDCHAR
STARTCHAR ch-6
ENCODING 6
SWIDTH 562 0
DWIDTH 9 0
BBX 9 16 0 -3
BITMAP
0000
6000
9000
f000
9000
9000
1c00
2400
2000
2000
1c00
0480
0500
0600
0500
0480
ENDCHAR
STARTCHAR ch-7
ENCODING 7
SWIDTH 562 0
DWIDTH 9 0
BBX 9 16 0 -3
BITMAP
0000
0000
0000
1800
3c00
3c00
3c00
3c00
6600
c300
ff00
1800
0000
0000
0000
0000
ENDCHAR
STARTCHAR ch-8
ENCODING 8
SWIDTH 562 0
DWIDTH 9 0
BBX 9 16 0 -3
BITMAP
0000
0000
0000
7000
4800
7000
4800
7000
0700
0800
0600
0100
0e00
0000
0000
0000
ENDCHAR
STARTCHAR ch-9
ENCODING 9
SWIDTH 562 0
DWIDTH 9 0
BBX 9 16 0 -3
BITMAP
0000
0000
0000
4800
4800
7800
4800
4800
0700
0200
0200
0200
0200
0000
0000
0000
ENDCHAR
STARTCHAR ch-10
ENCODING 10
SWIDTH 562 0
DWIDTH 9 0
BBX 9 16 0 -3
BITMAP
0000
0000
0000
4000
4000
4000
4000
7000
0e00
0800
0e00
0800
0800
0000
0000
0000
ENDCHAR
STARTCHAR ch-11
ENCODING 11
SWIDTH 562 0
DWIDTH 9 0
BBX 9 16 0 -3
BITMAP
0000
0000
0000
4800
4800
4800
3000
3000
0700
0200
0200
0200
0200
0000
0000
0000
ENDCHAR
STARTCHAR ch-12
ENCODING 12
SWIDTH 562 0
DWIDTH 9 0
BBX 9 16 0 -3
BITMAP
0000
0000
0000
7000
4000
7000
4000
4000
0e00
0800
0e00
0800
0800
0000
0000
0000
ENDCHAR
STARTCHAR ch-13
ENCODING 13
SWIDTH 562 0
DWIDTH 9 0
BBX 9 16 0 -3
BITMAP
0000
0000
0000
3800
4800
4000
4000
3800
0000
0e00
0900
0e00
0a00
0900
0000
0000
ENDCHAR
STARTCHAR ch-14
ENCODING 14
SWIDTH 562 0
DWIDTH 9 0
BBX 9 16 0 -3
BITMAP
0000
0000
0000
3800
4000
3000
0800
7000
0600
0900
0900
0900
0600
0000
0000
0000
ENDCHAR
STARTCHAR ch-15
ENCODING 15
SWIDTH 562 0
DWIDTH 9 0
BBX 9 16 0 -3
BITMAP
0000
0000
0000
3800
4000
3000
0800
7000
0700
0200
0200
0200
0700
0000
0000
0000
ENDCHAR
STARTCHAR ch-16
ENCODING 16
SWIDTH 562 0
DWIDTH 9 0
BBX 9 16 0 -3
BITMAP
0000
e000
9000
9000
9000
e000
1000
1000
1000
1000
1c00
0380
0200
0380
0200
0380
ENDCHAR
STARTCHAR ch-17
ENCODING 17
SWIDTH 562 0
DWIDTH 9 0
BBX 9 16 0 -3
BITMAP
0000
e000
9000
9000
9000
e000
1c00
2400
2000
2000
1c00
0100
0300
0100
0100
0380
ENDCHAR
STARTCHAR ch-18
ENCODING 18
SWIDTH 562 0
DWIDTH 9 0
BBX 9 16 0 -3
BITMAP
0000
e000
9000
9000
9000
e000
1c00
2400
2000
2000
1c00
0300
0480
0100
0200
0780
ENDCHAR
STARTCHAR ch-19
ENCODING 19
SWIDTH 562 0
DWIDTH 9 0
BBX 9 16 0 -3
BITMAP
0000
e000
9000
9000
9000
e000
1c00
2400
2000
2000
1c00
0300
0080
0300
0080
0300
ENDCHAR
STARTCHAR ch-20
ENCODING 20
SWIDTH 562 0
DWIDTH 9 0
BBX 9 16 0 -3
BITMAP
0000
e000
9000
9000
9000
e000
1c00
2400
2000
2000
1c00
0100
0300
0500
0f80
0100
ENDCHAR
STARTCHAR ch-21
ENCODING 21
SWIDTH 562 0
DWIDTH 9 0
BBX 9 16 0 -3
BITMAP
0000
9000
d000
b000
9000
9000
0c00
1200
1e00
1200
1200
0480
0500
0600
0500
0480
ENDCHAR
STARTCHAR ch-22
ENCODING 22
SWIDTH 562 0
DWIDTH 9 0
BBX 9 16 0 -3
BITMAP
0000
7000
8000
6000
1000
e000
2200
1400
0800
0800
0800
0480
0680
0580
0480
0480
ENDCHAR
STARTCHAR ch-23
ENCODING 23
SWIDTH 562 0
DWIDTH 9 0
BBX 9 16 0 -3
BITMAP
0000
e000
8000
e000
8000
e000
1c00
0800
0800
0800
0800
0700
0480
0700
0480
0700
ENDCHAR
STARTCHAR ch-24
ENCODING 24
SWIDTH 562 0
DWIDTH 9 0
BBX 9 16 0 -3
BITMAP
0000
7000
9000
8000
8000
7000
0c00
1200
1e00
1200
1200
0480
0680
0580
0480
0480
ENDCHAR
STARTCHAR ch-25
ENCODING 25
SWIDTH 562 0
DWIDTH 9 0
BBX 9 16 0 -3
BITMAP
0000
0000
0000
e000
8000
e000
8000
e000
1100
1b00
1500
1500
1100
0000
0000
0000
ENDCHAR
STARTCHAR ch-26
ENCODING 26
SWIDTH 562 0
DWIDTH 9 0
BBX 9 16 0 -3
BITMAP
0000
7000
8000
6000
1000
e000
2400
2400
2400
2400
1800
0700
0480
0700
0480
0700
ENDCHAR
STARTCHAR ch-27
ENCODING 27
SWIDTH 562 0
DWIDTH 9 0
BBX 9 16 0 -3
BITMAP
0000
e000
8000
e000
8000
e000
1c00
2000
1800
0400
3800
0380
0480
0400
0400
0380
ENDCHAR
STARTCHAR ch-28
ENCODING 28
SWIDTH 562 0
DWIDTH 9 0
BBX 9 16 0 -3
BITMAP
0000
0000
0000
7000
4000
7000
4000
4000
0e00
1000
0c00
0200
1c00
0000
0000
0000
ENDCHAR
STARTCHAR ch-29
ENCODING 29
SWIDTH 562 0
DWIDTH 9 0
BBX 9 16 0 -3
BITMAP
0000
0000
0000
3800
4000
5800
4800
3800
0700
0800
0600
0100
0e00
0000
0000
0000
ENDCHAR
STARTCHAR ch-30
ENCODING 30
SWIDTH 562 0
DWIDTH 9 0
BBX 9 16 0 -3
BITMAP
0000
0000
0000
7000
4800
7000
5000
4800
0700
0800
0600
0100
0e00
0000
0000
0000
ENDCHAR
STARTCHAR ch-31
ENCODING 31
SWIDTH 562 0
DWIDTH 9 0
BBX 9 16 0 -3
BITMAP
0000
0000
0000
4800
4800
4800
4800
3000
0700
0800
0600
0100
0e00
0000
0000
0000
ENDCHAR
STARTCHAR ch-32
ENCODING 32
SWIDTH 562 0
DWIDTH 9 0
BBX 9 16 0 -3
BITMAP
0000
0000
0000
0000
0000
0000
0000
0000
0000
0000
0000
0000
0000
0000
0000
0000
ENDCHAR
STARTCHAR ch-33
ENCODING 33
SWIDTH 562 0
DWIDTH 9 0
BBX 9 16 0 -3
BITMAP
0000
0000
1c00
1c00
1c00
1c00
1c00
0800
0800
0000
1c00
1c00
1c00
0000
0000
0000
ENDCHAR
STARTCHAR ch-34
ENCODING 34
SWIDTH 562 0
DWIDTH 9 0
BBX 9 16 0 -3
BITMAP
0000
7700
7700
7700
2200
2200
2200
0000
0000
0000
0000
0000
0000
0000
0000
0000
ENDCHAR
STARTCHAR ch-35
ENCODING 35
SWIDTH 562 0
DWIDTH 9 0
BBX 9 16 0 -3
BITMAP
0000
0000
0a00
0a00
0a00
7f00
1400
1400
1400
7f00
2800
2800
2800
0000
0000
0000
ENDCHAR
STARTCHAR ch-36
ENCODING 36
SWIDTH 562 0
DWIDTH 9 0
BBX 9 16 0 -3
BITMAP
0000
0800
3e00
6b00
6800
6800
7800
3e00
0f00
0b00
0b00
6b00
3e00
0800
0800
0000
ENDCHAR
STARTCHAR ch-37
ENCODING 37
SWIDTH 562 0
DWIDTH 9 0
BBX 9 16 0 -3
BITMAP
0000
0000
7800
cc00
cc00
7900
0600
1800
6000
9e00
3300
3300
1e00
0000
0000
0000
ENDCHAR
STARTCHAR ch-38
ENCODING 38
SWIDTH 562 0
DWIDTH 9 0
BBX 9 16 0 -3
BITMAP
0000
0000
7800
cc00
cc00
c800
7000
5b00
da00
cc00
cc00
ee00
7700
0000
0000
0000
ENDCHAR
STARTCHAR ch-39
ENCODING 39
SWIDTH 562 0
DWIDTH 9 0
BBX 9 16 0 -3
BITMAP
0000
1c00
1c00
1c00
0c00
0c00
1800
0000
0000
0000
0000
0000
0000
0000
0000
0000
ENDCHAR
STARTCHAR ch-40
ENCODING 40
SWIDTH 562 0
DWIDTH 9 0
BBX 9 16 0 -3
BITMAP
0000
0200
0c00
1800
1800
3000
3000
3000
3000
3000
3000
3000
1800
1800
0c00
0200
ENDCHAR
STARTCHAR ch-41
ENCODING 41
SWIDTH 562 0
DWIDTH 9 0
BBX 9 16 0 -3
BITMAP
0000
2000
1800
0c00
0c00
0600
0600
0600
0600
0600
0600
0600
0c00
0c00
1800
2000
ENDCHAR
STARTCHAR ch-42
ENCODING 42
SWIDTH 562 0
DWIDTH 9 0
BBX 9 16 0 -3
BITMAP
0000
0000
0000
0000
0800
2a00
1c00
7700
1c00
2a00
0800
0000
0000
0000
0000
0000
ENDCHAR
STARTCHAR ch-43
ENCODING 43
SWIDTH 562 0
DWIDTH 9 0
BBX 9 16 0 -3
BITMAP
0000
0000
0000
0000
1800
1800
1800
ff00
ff00
1800
1800
1800
0000
0000
0000
0000
ENDCHAR
STARTCHAR ch-44
ENCODING 44
SWIDTH 562 0
DWIDTH 9 0
BBX 9 16 0 -3
BITMAP
0000
0000
0000
0000
0000
0000
0000
0000
0000
0000
1c00
1c00
1c00
0c00
0c00
1800
ENDCHAR
STARTCHAR ch-45
ENCODING 45
SWIDTH 562 0
DWIDTH 9 0
BBX 9 16 0 -3
BITMAP
0000
0000
0000
0000
0000
0000
0000
7f00
7f00
0000
0000
0000
0000
0000
0000
0000
ENDCHAR
STARTCHAR ch-46
ENCODING 46
SWIDTH 562 0
DWIDTH 9 0
BBX 9 16 0 -3
BITMAP
0000
0000
0000
0000
0000
0000
0000
0000
0000
0000
1c00
1c00
1c00
0000
0000
0000
ENDCHAR
STARTCHAR ch-47
ENCODING 47
SWIDTH 562 0
DWIDTH 9 0
BBX 9 16 0 -3
BITMAP
0000
0300
0300
0600
0600
0c00
0c00
1800
1800
3000
3000
6000
6000
c000
c000
0000
ENDCHAR
STARTCHAR ch-48
ENCODING 48
SWIDTH 562 0
DWIDTH 9 0
BBX 9 16 0 -3
BITMAP
0000
0000
3e00
6300
6300
6300
6300
6300
6300
6300
6300
6300
3e00
0000
0000
0000
ENDCHAR
STARTCHAR ch-49
ENCODING 49
SWIDTH 562 0
DWIDTH 9 0
BBX 9 16 0 -3
BITMAP
0000
0000
0c00
1c00
2c00
4c00
0c00
0c00
0c00
0c00
0c00
0c00
3f00
0000
0000
0000
ENDCHAR
STARTCHAR ch-50
ENCODING 50
SWIDTH 562 0
DWIDTH 9 0
BBX 9 16 0 -3
BITMAP
0000
0000
3e00
6300
6300
0300
0300
0600
0c00
1800
3000
7f00
7f00
0000
0000
0000
ENDCHAR
STARTCHAR ch-51
ENCODING 51
SWIDTH 562 0
DWIDTH 9 0
BBX 9 16 0 -3
BITMAP
0000
0000
3e00
6300
6300
0300
0300
1c00
0300
0300
0300
6300
3e00
0000
0000
0000
ENDCHAR
STARTCHAR ch-52
ENCODING 52
SWIDTH 562 0
DWIDTH 9 0
BBX 9 16 0 -3
BITMAP
0000
0000
0e00
1600
1600
2600
2600
4600
7f00
7f00
0600
0600
1f00
0000
0000
0000
ENDCHAR
STARTCHAR ch-53
ENCODING 53
SWIDTH 562 0
DWIDTH 9 0
BBX 9 16 0 -3
BITMAP
0000
0000
3f00
3f00
2000
2000
3800
0e00
0300
0300
0300
6300
3e00
0000
0000
0000
ENDCHAR
STARTCHAR ch-54
ENCODING 54
SWIDTH 562 0
DWIDTH 9 0
BBX 9 16 0 -3
BITMAP
0000
0000
3e00
6300
6000
6000
6000
7e00
6300
6300
6300
6300
3e00
0000
0000
0000
ENDCHAR
STARTCHAR ch-55
ENCODING 55
SWIDTH 562 0
DWIDTH 9 0
BBX 9 16 0 -3
BITMAP
0000
0000
7f00
7f00
0100
0300
0600
0c00
1800
1800
3000
3000
3000
0000
0000
0000
ENDCHAR
STARTCHAR ch-56
ENCODING 56
SWIDTH 562 0
DWIDTH 9 0
BBX 9 16 0 -3
BITMAP
0000
0000
3e00
6300
6300
7300
3a00
1c00
2e00
6700
6300
6300
3e00
0000
0000
0000
ENDCHAR
STARTCHAR ch-57
ENCODING 57
SWIDTH 562 0
DWIDTH 9 0
BBX 9 16 0 -3
BITMAP
0000
0000
3e00
6300
6300
6300
6300
3f00
0300
0300
0300
6300
3e00
0000
0000
0000
ENDCHAR
STARTCHAR ch-58
ENCODING 58
SWIDTH 562 0
DWIDTH 9 0
BBX 9 16 0 -3
BITMAP
0000
0000
0000
0000
1c00
1c00
1c00
0000
0000
0000
1c00
1c00
1c00
0000
0000
0000
ENDCHAR
STARTCHAR ch-59
ENCODING 59
SWIDTH 562 0
DWIDTH 9 0
BBX 9 16 0 -3
BITMAP
0000
0000
0000
0000
1c00
1c00
1c00
0000
0000
0000
1c00
1c00
1c00
0c00
0c00
1800
ENDCHAR
STARTCHAR ch-60
ENCODING 60
SWIDTH 562 0
DWIDTH 9 0
BBX 9 16 0 -3
BITMAP
0000
0000
0200
0600
0c00
1800
3000
7000
3000
1800
0c00
0600
0200
0000
0000
0000
ENDCHAR
STARTCHAR ch-61
ENCODING 61
SWIDTH 562 0
DWIDTH 9 0
BBX 9 16 0 -3
BITMAP
0000
0000
0000
0000
0000
7f00
7f00
0000
0000
7f00
7f00
0000
0000
0000
0000
0000
ENDCHAR
STARTCHAR ch-62
ENCODING 62
SWIDTH 562 0
DWIDTH 9 0
BBX 9 16 0 -3
BITMAP
0000
0000
2000
3000
1800
0c00
0600
0700
0600
0c00
1800
3000
2000
0000
0000
0000
ENDCHAR
STARTCHAR ch-63
ENCODING 63
SWIDTH 562 0
DWIDTH 9 0
BBX 9 16 0 -3
BITMAP
0000
0000
3c00
6600
6600
0600
0c00
1800
1800
1000
0000
3800
3800
0000
0000
0000
ENDCHAR
STARTCHAR ch-64
ENCODING 64
SWIDTH 562 0
DWIDTH 9 0
BBX 9 16 0 -3
BITMAP
0000
0000
3e00
4300
8300
9f00
b300
b300
b300
9f00
8000
4300
3e00
0000
0000
0000
ENDCHAR
STARTCHAR ch-65
ENCODING 65
SWIDTH 562 0
DWIDTH 9 0
BBX 9 16 0 -3
BITMAP
0000
0000
1c00
1c00
1c00
2600
2600
2600
7f00
4300
4300
6300
6300
0000
0000
0000
ENDCHAR
STARTCHAR ch-66
ENCODING 66
SWIDTH 562 0
DWIDTH 9 0
BBX 9 16 0 -3
BITMAP
0000
0000
7e00
6300
6300
6300
6200
7c00
6200
6300
6300
6300
7e00
0000
0000
0000
ENDCHAR
STARTCHAR ch-67
ENCODING 67
SWIDTH 562 0
DWIDTH 9 0
BBX 9 16 0 -3
BITMAP
0000
0000
1f00
3100
6000
6000
6000
6000
6000
6000
6000
3100
1f00
0000
0000
0000
ENDCHAR
STARTCHAR ch-68
ENCODING 68
SWIDTH 562 0
DWIDTH 9 0
BBX 9 16 0 -3
BITMAP
0000
0000
7c00
6600
6300
6300
6300
6300
6300
6300
6300
6600
7c00
0000
0000
0000
ENDCHAR
STARTCHAR ch-69
ENCODING 69
SWIDTH 562 0
DWIDTH 9 0
BBX 9 16 0 -3
BITMAP
0000
0000
7e00
6000
6000
6000
6000
7c00
6000
6000
6000
6000
7e00
0000
0000
0000
ENDCHAR
STARTCHAR ch-70
ENCODING 70
SWIDTH 562 0
DWIDTH 9 0
BBX 9 16 0 -3
BITMAP
0000
0000
7e00
6000
6000
6000
6000
7c00
6000
6000
6000
6000
6000
0000
0000
0000
ENDCHAR
STARTCHAR ch-71
ENCODING 71
SWIDTH 562 0
DWIDTH 9 0
BBX 9 16 0 -3
BITMAP
0000
0000
1f00
3100
6000
6000
6000
6000
6700
6300
6300
3300
1f00
0000
0000
0000
ENDCHAR
STARTCHAR ch-72
ENCODING 72
SWIDTH 562 0
DWIDTH 9 0
BBX 9 16 0 -3
BITMAP
0000
0000
6300
6300
6300
6300
6300
7f00
6300
6300
6300
6300
6300
0000
0000
0000
ENDCHAR
STARTCHAR ch-73
ENCODING 73
SWIDTH 562 0
DWIDTH 9 0
BBX 9 16 0 -3
BITMAP
0000
0000
7e00
1800
1800
1800
1800
1800
1800
1800
1800
1800
7e00
0000
0000
0000
ENDCHAR
STARTCHAR ch-74
ENCODING 74
SWIDTH 562 0
DWIDTH 9 0
BBX 9 16 0 -3
BITMAP
0000
0000
7e00
1800
1800
1800
1800
1800
1800
1800
1800
1800
1800
3000
6000
0000
ENDCHAR
STARTCHAR ch-75
ENCODING 75
SWIDTH 562 0
DWIDTH 9 0
BBX 9 16 0 -3
BITMAP
0000
0000
c200
c600
cc00
c800
d000
f000
d800
cc00
cc00
c600
c700
0000
0000
0000
ENDCHAR
STARTCHAR ch-76
ENCODING 76
SWIDTH 562 0
DWIDTH 9 0
BBX 9 16 0 -3
BITMAP
0000
0000
6000
6000
6000
6000
6000
6000
6000
6000
6000
6000
7f00
0000
0000
0000
ENDCHAR
STARTCHAR ch-77
ENCODING 77
SWIDTH 562 0
DWIDTH 9 0
BBX 9 16 0 -3
BITMAP
0000
0000
6300
6300
7700
7700
5b00
5b00
5b00
5b00
4300
4300
4300
0000
0000
0000
ENDCHAR
STARTCHAR ch-78
ENCODING 78
SWIDTH 562 0
DWIDTH 9 0
BBX 9 16 0 -3
BITMAP
0000
0000
6100
7100
7100
5900
5900
4d00
4d00
4d00
4700
4700
4300
0000
0000
0000
ENDCHAR
STARTCHAR ch-79
ENCODING 79
SWIDTH 562 0
DWIDTH 9 0
BBX 9 16 0 -3
BITMAP
0000
0000
3c00
6600
c300
c300
c300
c300
c300
c300
c300
6600
3c00
0000
0000
0000
ENDCHAR
STARTCHAR ch-80
ENCODING 80
SWIDTH 562 0
DWIDTH 9 0
BBX 9 16 0 -3
BITMAP
0000
0000
7e00
6300
6300
6300
6300
6600
7c00
6000
6000
6000
6000
0000
0000
0000
ENDCHAR
STARTCHAR ch-81
ENCODING 81
SWIDTH 562 0
DWIDTH 9 0
BBX 9 16 0 -3
BITMAP
0000
0000
3c00
6600
c300
c300
c300
c300
c300
c300
c300
6600
3c00
0600
0300
0000
ENDCHAR
STARTCHAR ch-82
ENCODING 82
SWIDTH 562 0
DWIDTH 9 0
BBX 9 16 0 -3
BITMAP
0000
0000
fc00
c600
c600
c600
c400
f800
cc00
cc00
c600
c600
c700
0000
0000
0000
ENDCHAR
STARTCHAR ch-83
ENCODING 83
SWIDTH 562 0
DWIDTH 9 0
BBX 9 16 0 -3
BITMAP
0000
0000
3e00
6300
6000
6000
7800
3e00
0f00
0300
0300
6300
3e00
0000
0000
0000
ENDCHAR
STARTCHAR ch-84
ENCODING 84
SWIDTH 562 0
DWIDTH 9 0
BBX 9 16 0 -3
BITMAP
0000
0000
ff00
1800
1800
1800
1800
1800
1800
1800
1800
1800
1800
0000
0000
0000
ENDCHAR
STARTCHAR ch-85
ENCODING 85
SWIDTH 562 0
DWIDTH 9 0
BBX 9 16 0 -3
BITMAP
0000
0000
6300
6300
6300
6300
6300
6300
6300
6300
6300
3600
1c00
0000
0000
0000
ENDCHAR
STARTCHAR ch-86
ENCODING 86
SWIDTH 562 0
DWIDTH 9 0
BBX 9 16 0 -3
BITMAP
0000
0000
6300
6300
6100
6100
6300
3200
3200
3200
1c00
1c00
1c00
0000
0000
0000
ENDCHAR
STARTCHAR ch-87
ENCODING 87
SWIDTH 562 0
DWIDTH 9 0
BBX 9 16 0 -3
BITMAP
0000
0000
6300
6300
6100
6d00
6d00
6d00
3600
3600
3600
3600
3600
0000
0000
0000
ENDCHAR
STARTCHAR ch-88
ENCODING 88
SWIDTH 562 0
DWIDTH 9 0
BBX 9 16 0 -3
BITMAP
0000
0000
6300
6300
3300
3200
1c00
1c00
1c00
2600
6600
6300
6300
0000
0000
0000
ENDCHAR
STARTCHAR ch-89
ENCODING 89
SWIDTH 562 0
DWIDTH 9 0
BBX 9 16 0 -3
BITMAP
0000
0000
c300
c300
c300
6200
6600
3c00
1800
1800
1800
1800
1800
0000
0000
0000
ENDCHAR
STARTCHAR ch-90
ENCODING 90
SWIDTH 562 0
DWIDTH 9 0
BBX 9 16 0 -3
BITMAP
0000
0000
7f00
0300
0300
0600
0c00
1800
3000
6000
6000
6000
7f00
0000
0000
0000
ENDCHAR
STARTCHAR ch-91
ENCODING 91
SWIDTH 562 0
DWIDTH 9 0
BBX 9 16 0 -3
BITMAP
0000
3e00
3000
3000
3000
3000
3000
3000
3000
3000
3000
3000
3000
3000
3000
3e00
ENDCHAR
STARTCHAR ch-92
ENCODING 92
SWIDTH 562 0
DWIDTH 9 0
BBX 9 16 0 -3
BITMAP
0000
c000
c000
6000
6000
3000
3000
1800
1800
0c00
0c00
0600
0600
0300
0300
0000
ENDCHAR
STARTCHAR ch-93
ENCODING 93
SWIDTH 562 0
DWIDTH 9 0
BBX 9 16 0 -3
BITMAP
0000
3e00
0600
0600
0600
0600
0600
0600
0600
0600
0600
0600
0600
0600
0600
3e00
ENDCHAR
STARTCHAR ch-94
ENCODING 94
SWIDTH 562 0
DWIDTH 9 0
BBX 9 16 0 -3
BITMAP
0000
0000
0800
1c00
1400
3600
2200
6300
4100
0000
0000
0000
0000
0000
0000
0000
ENDCHAR
STARTCHAR ch-95
ENCODING 95
SWIDTH 562 0
DWIDTH 9 0
BBX 9 16 0 -3
BITMAP
0000
0000
0000
0000
0000
0000
0000
0000
0000
0000
0000
0000
0000
ff00
ff00
0000
ENDCHAR
STARTCHAR ch-96
ENCODING 96
SWIDTH 562 0
DWIDTH 9 0
BBX 9 16 0 -3
BITMAP
0000
0c00
1800
1800
1c00
1c00
1c00
0000
0000
0000
0000
0000
0000
0000
0000
0000
ENDCHAR
STARTCHAR ch-97
ENCODING 97
SWIDTH 562 0
DWIDTH 9 0
BBX 9 16 0 -3
BITMAP
0000
0000
0000
0000
3e00
6300
0300
0300
3f00
6300
6300
6700
3b00
0000
0000
0000
ENDCHAR
STARTCHAR ch-98
ENCODING 98
SWIDTH 562 0
DWIDTH 9 0
BBX 9 16 0 -3
BITMAP
0000
6000
6000
6000
6c00
7600
6300
6300
6300
6300
6300
6600
7c00
0000
0000
0000
ENDCHAR
STARTCHAR ch-99
ENCODING 99
SWIDTH 562 0
DWIDTH 9 0
BBX 9 16 0 -3
BITMAP
0000
0000
0000
0000
1e00
3300
6300
6000
6000
6000
6000
3300
1e00
0000
0000
0000
ENDCHAR
STARTCHAR ch-100
ENCODING 100
SWIDTH 562 0
DWIDTH 9 0
BBX 9 16 0 -3
BITMAP
0000
0300
0300
0300
1f00
3300
6300
6300
6300
6300
6300
3700
1b00
0000
0000
0000
ENDCHAR
STARTCHAR ch-101
ENCODING 101
SWIDTH 562 0
DWIDTH 9 0
BBX 9 16 0 -3
BITMAP
0000
0000
0000
0000
1e00
3300
6300
6300
7f00
6000
6000
3300
1e00
0000
0000
0000
ENDCHAR
STARTCHAR ch-102
ENCODING 102
SWIDTH 562 0
DWIDTH 9 0
BBX 9 16 0 -3
BITMAP
0000
0f00
1800
1800
7f00
1800
1800
1800
1800
1800
1800
1800
7e00
0000
0000
0000
ENDCHAR
STARTCHAR ch-103
ENCODING 103
SWIDTH 562 0
DWIDTH 9 0
BBX 9 16 0 -3
BITMAP
0000
0000
0000
0000
1f00
3300
6300
6300
6300
6300
6300
3700
1b00
0300
6300
3e00
ENDCHAR
STARTCHAR ch-104
ENCODING 104
SWIDTH 562 0
DWIDTH 9 0
BBX 9 16 0 -3
BITMAP
0000
6000
6000
6000
6e00
7700
6300
6300
6300
6300
6300
6300
6300
0000
0000
0000
ENDCHAR
STARTCHAR ch-105
ENCODING 105
SWIDTH 562 0
DWIDTH 9 0
BBX 9 16 0 -3
BITMAP
0000
1800
1800
0000
f800
1800
1800
1800
1800
1800
1800
1800
ff00
0000
0000
0000
ENDCHAR
STARTCHAR ch-106
ENCODING 106
SWIDTH 562 0
DWIDTH 9 0
BBX 9 16 0 -3
BITMAP
0000
0600
0600
0000
3e00
0600
0600
0600
0600
0600
0600
0600
0600
0600
0c00
3800
ENDCHAR
STARTCHAR ch-107
ENCODING 107
SWIDTH 562 0
DWIDTH 9 0
BBX 9 16 0 -3
BITMAP
0000
6000
6000
6000
6300
6200
6400
6800
7800
6c00
6600
6300
6300
0000
0000
0000
ENDCHAR
STARTCHAR ch-108
ENCODING 108
SWIDTH 562 0
DWIDTH 9 0
BBX 9 16 0 -3
BITMAP
0000
f800
1800
1800
1800
1800
1800
1800
1800
1800
1800
1800
ff00
0000
0000
0000
ENDCHAR
STARTCHAR ch-109
ENCODING 109
SWIDTH 562 0
DWIDTH 9 0
BBX 9 16 0 -3
BITMAP
0000
0000
0000
0000
d200
ff00
db00
db00
db00
db00
db00
db00
db00
0000
0000
0000
ENDCHAR
STARTCHAR ch-110
ENCODING 110
SWIDTH 562 0
DWIDTH 9 0
BBX 9 16 0 -3
BITMAP
0000
0000
0000
0000
6e00
7700
6300
6300
6300
6300
6300
6300
6300
0000
0000
0000
ENDCHAR
STARTCHAR ch-111
ENCODING 111
SWIDTH 562 0
DWIDTH 9 0
BBX 9 16 0 -3
BITMAP
0000
0000
0000
0000
3c00
6600
c300
c300
c300
c300
c300
6600
3c00
0000
0000
0000
ENDCHAR
STARTCHAR ch-112
ENCODING 112
SWIDTH 562 0
DWIDTH 9 0
BBX 9 16 0 -3
BITMAP
0000
0000
0000
0000
6c00
7600
6300
6300
6300
6300
6300
6600
7c00
6000
6000
6000
ENDCHAR
STARTCHAR ch-113
ENCODING 113
SWIDTH 562 0
DWIDTH 9 0
BBX 9 16 0 -3
BITMAP
0000
0000
0000
0000
1f00
3300
6300
6300
6300
6300
6300
3700
1b00
0300
0300
0300
ENDCHAR
STARTCHAR ch-114
ENCODING 114
SWIDTH 562 0
DWIDTH 9 0
BBX 9 16 0 -3
BITMAP
0000
0000
0000
0000
7300
3f00
3300
3000
3000
3000
3000
3000
7c00
0000
0000
0000
ENDCHAR
STARTCHAR ch-115
ENCODING 115
SWIDTH 562 0
DWIDTH 9 0
BBX 9 16 0 -3
BITMAP
0000
0000
0000
0000
3e00
6300
6000
7000
3e00
0700
0300
6300
3e00
0000
0000
0000
ENDCHAR
STARTCHAR ch-116
ENCODING 116
SWIDTH 562 0
DWIDTH 9 0
BBX 9 16 0 -3
BITMAP
0000
0000
0800
1800
7f00
1800
1800
1800
1800
1800
1800
1800
0f00
0000
0000
0000
ENDCHAR
STARTCHAR ch-117
ENCODING 117
SWIDTH 562 0
DWIDTH 9 0
BBX 9 16 0 -3
BITMAP
0000
0000
0000
0000
6300
6300
6300
6300
6300
6300
6300
7700
3b00
0000
0000
0000
ENDCHAR
STARTCHAR ch-118
ENCODING 118
SWIDTH 562 0
DWIDTH 9 0
BBX 9 16 0 -3
BITMAP
0000
0000
0000
0000
6300
6300
6100
3300
3200
3200
1c00
1c00
1c00
0000
0000
0000
ENDCHAR
STARTCHAR ch-119
ENCODING 119
SWIDTH 562 0
DWIDTH 9 0
BBX 9 16 0 -3
BITMAP
0000
0000
0000
0000
6300
6100
6d00
6d00
6d00
3600
3600
3600
3600
0000
0000
0000
ENDCHAR
STARTCHAR ch-120
ENCODING 120
SWIDTH 562 0
DWIDTH 9 0
BBX 9 16 0 -3
BITMAP
0000
0000
0000
0000
6300
6300
3200
3c00
0800
1e00
2600
6300
6300
0000
0000
0000
ENDCHAR
STARTCHAR ch-121
ENCODING 121
SWIDTH 562 0
DWIDTH 9 0
BBX 9 16 0 -3
BITMAP
0000
0000
0000
0000
6300
6300
6100
3300
3200
3200
1c00
1c00
0c00
0800
1800
3800
ENDCHAR
STARTCHAR ch-122
ENCODING 122
SWIDTH 562 0
DWIDTH 9 0
BBX 9 16 0 -3
BITMAP
0000
0000
0000
0000
7f00
0300
0600
0c00
1800
3000
6000
6000
7f00
0000
0000
0000
ENDCHAR
STARTCHAR ch-123
ENCODING 123
SWIDTH 562 0
DWIDTH 9 0
BBX 9 16 0 -3
BITMAP
0000
0e00
1800
1800
1800
1800
0c00
0c00
3800
0c00
0c00
1800
1800
1800
1800
0e00
ENDCHAR
STARTCHAR ch-124
ENCODING 124
SWIDTH 562 0
DWIDTH 9 0
BBX 9 16 0 -3
BITMAP
0000
1800
1800
1800
1800
1800
1800
1800
1800
1800
1800
1800
1800
1800
1800
1800
ENDCHAR
STARTCHAR ch-125
ENCODING 125
SWIDTH 562 0
DWIDTH 9 0
BBX 9 16 0 -3
BITMAP
0000
3800
1c00
0c00
0c00
0c00
1800
1800
0e00
1800
1800
0c00
0c00
0c00
0c00
3800
ENDCHAR
STARTCHAR ch-126
ENCODING 126
SWIDTH 562 0
DWIDTH 9 0
BBX 9 16 0 -3
BITMAP
0000
0000
0000
0000
0000
1100
3900
7f00
4e00
4400
0000
0000
0000
0000
0000
0000
ENDCHAR
STARTCHAR ch-127
ENCODING 127
SWIDTH 562 0
DWIDTH 9 0
BBX 9 16 0 -3
BITMAP
0000
0000
2400
4900
9200
2400
4900
9200
2400
4900
9200
2400
4900
9200
2400
0000
ENDCHAR
STARTCHAR ch-128
ENCODING 128
SWIDTH 562 0
DWIDTH 9 0
BBX 9 16 0 -3
BITMAP
ff80
8080
9c80
be80
b680
8680
8c80
9880
9880
9080
8080
b880
b880
8080
ff80
0000
ENDCHAR
STARTCHAR ch-129
ENCODING 129
SWIDTH 562 0
DWIDTH 9 0
BBX 9 16 0 -3
BITMAP
0000
7200
8100
e080
1000
e000
1800
2400
2400
2400
1800
0480
8480
4780
2480
0480
ENDCHAR
STARTCHAR ch-130
ENCODING 130
SWIDTH 562 0
DWIDTH 9 0
BBX 9 16 0 -3
BITMAP
0000
7200
8100
e080
1000
e000
1c00
0800
0800
0800
0800
0480
8480
4300
2480
0480
ENDCHAR
STARTCHAR ch-131
ENCODING 131
SWIDTH 562 0
DWIDTH 9 0
BBX 9 16 0 -3
BITMAP
0000
e200
8100
e080
8000
e000
1c00
0800
0800
0800
0800
0480
8480
4300
2480
0480
ENDCHAR
STARTCHAR ch-132
ENCODING 132
SWIDTH 562 0
DWIDTH 9 0
BBX 9 16 0 -3
BITMAP
0000
e200
8100
e080
8000
e000
1800
2400
2400
2400
1800
0380
8100
4100
2100
0100
ENDCHAR
STARTCHAR ch-133
ENCODING 133
SWIDTH 562 0
DWIDTH 9 0
BBX 9 16 0 -3
BITMAP
0000
e200
8100
e080
8000
e000
2400
3400
2c00
2400
2400
0600
8900
4900
2b00
0680
ENDCHAR
STARTCHAR ch-134
ENCODING 134
SWIDTH 562 0
DWIDTH 9 0
BBX 9 16 0 -3
BITMAP
0000
6200
9100
f080
9000
9000
1c00
2400
2000
2000
1c00
0480
8500
4600
2500
0480
ENDCHAR
STARTCHAR ch-135
ENCODING 135
SWIDTH 562 0
DWIDTH 9 0
BBX 9 16 0 -3
BITMAP
0000
0200
0100
1880
3c00
3c00
3c00
3c00
6600
c300
ff00
1800
8000
4000
2000
0000
ENDCHAR
STARTCHAR ch-136
ENCODING 136
SWIDTH 562 0
DWIDTH 9 0
BBX 9 16 0 -3
BITMAP
0000
0200
0100
7080
4800
7000
4800
7000
0700
0800
0600
0100
8e00
4000
2000
0000
ENDCHAR
STARTCHAR ch-137
ENCODING 137
SWIDTH 562 0
DWIDTH 9 0
BBX 9 16 0 -3
BITMAP
0000
0200
0100
4880
4800
7800
4800
4800
0700
0200
0200
0200
8200
4000
2000
0000
ENDCHAR
STARTCHAR ch-138
ENCODING 138
SWIDTH 562 0
DWIDTH 9 0
BBX 9 16 0 -3
BITMAP
0000
0200
0100
4080
4000
4000
4000
7000
0e00
0800
0e00
0800
8800
4000
2000
0000
ENDCHAR
STARTCHAR ch-139
ENCODING 139
SWIDTH 562 0
DWIDTH 9 0
BBX 9 16 0 -3
BITMAP
0000
0200
0100
4880
4800
4800
3000
3000
0700
0200
0200
0200
8200
4000
2000
0000
ENDCHAR
STARTCHAR ch-140
ENCODING 140
SWIDTH 562 0
DWIDTH 9 0
BBX 9 16 0 -3
BITMAP
0000
0200
0100
7080
4000
7000
4000
4000
0e00
0800
0e00
0800
8800
4000
2000
0000
ENDCHAR
STARTCHAR ch-141
ENCODING 141
SWIDTH 562 0
DWIDTH 9 0
BBX 9 16 0 -3
BITMAP
0000
0200
3900
4880
4000
4000
3800
0000
0e00
0900
0e00
0a00
8900
4000
2000
0000
ENDCHAR
STARTCHAR ch-142
ENCODING 142
SWIDTH 562 0
DWIDTH 9 0
BBX 9 16 0 -3
BITMAP
0000
0200
0100
3880
4000
3000
0800
7000
0600
0900
0900
0900
8600
4000
2000
0000
ENDCHAR
STARTCHAR ch-143
ENCODING 143
SWIDTH 562 0
DWIDTH 9 0
BBX 9 16 0 -3
BITMAP
0000
0200
0100
3880
4000
3000
0800
7000
0700
0200
0200
0200
8700
4000
2000
0000
ENDCHAR
STARTCHAR ch-144
ENCODING 144
SWIDTH 562 0
DWIDTH 9 0
BBX 9 16 0 -3
BITMAP
0000
e200
9100
9080
9000
e000
1000
1000
1000
1000
1c00
0380
8200
4380
2200
0380
ENDCHAR
STARTCHAR ch-145
ENCODING 145
SWIDTH 562 0
DWIDTH 9 0
BBX 9 16 0 -3
BITMAP
0000
e200
9100
9080
9000
e000
1c00
2400
2000
2000
1c00
0100
8300
4100
2100
0380
ENDCHAR
STARTCHAR ch-146
ENCODING 146
SWIDTH 562 0
DWIDTH 9 0
BBX 9 16 0 -3
BITMAP
0000
e200
9100
9080
9000
e000
1c00
2400
2000
2000
1c00
0300
8480
4100
2200
0780
ENDCHAR
STARTCHAR ch-147
ENCODING 147
SWIDTH 562 0
DWIDTH 9 0
BBX 9 16 0 -3
BITMAP
0000
e200
9100
9080
9000
e000
1c00
2400
2000
2000
1c00
0300
8080
4300
2080
0300
ENDCHAR
STARTCHAR ch-148
ENCODING 148
SWIDTH 562 0
DWIDTH 9 0
BBX 9 16 0 -3
BITMAP
0000
e200
9100
9080
9000
e000
1c00
2400
2000
2000
1c00
0100
8300
4500
2f80
0100
ENDCHAR
STARTCHAR ch-149
ENCODING 149
SWIDTH 562 0
DWIDTH 9 0
BBX 9 16 0 -3
BITMAP
0000
9200
d100
b080
9000
9000
0c00
1200
1e00
1200
1200
0480
8500
4600
2500
0480
ENDCHAR
STARTCHAR ch-150
ENCODING 150
SWIDTH 562 0
DWIDTH 9 0
BBX 9 16 0 -3
BITMAP
7000
8200
6100
1080
e000
2200
1400
0800
0800
0800
0480
0680
8580
4480
2480
0000
ENDCHAR
STARTCHAR ch-151
ENCODING 151
SWIDTH 562 0
DWIDTH 9 0
BBX 9 16 0 -3
BITMAP
0000
e200
8100
e080
8000
e000
1c00
0800
0800
0800
0800
0700
8480
4700
2480
0700
ENDCHAR
STARTCHAR ch-152
ENCODING 152
SWIDTH 562 0
DWIDTH 9 0
BBX 9 16 0 -3
BITMAP
0000
7200
9100
8080
8000
7000
0c00
1200
1e00
1200
1200
0480
8680
4580
2480
0480
ENDCHAR
STARTCHAR ch-153
ENCODING 153
SWIDTH 562 0
DWIDTH 9 0
BBX 9 16 0 -3
BITMAP
0000
0200
0100
e080
8000
e000
8000
e000
1100
1b00
1500
1500
9100
4000
2000
0000
ENDCHAR
STARTCHAR ch-154
ENCODING 154
SWIDTH 562 0
DWIDTH 9 0
BBX 9 16 0 -3
BITMAP
0000
7200
8100
6080
1000
e000
2400
2400
2400
2400
1800
0700
8480
4700
2480
0700
ENDCHAR
STARTCHAR ch-155
ENCODING 155
SWIDTH 562 0
DWIDTH 9 0
BBX 9 16 0 -3
BITMAP
0000
e200
8100
e080
8000
e000
1c00
2000
1800
0400
3800
0380
8480
4400
6400
0380
ENDCHAR
STARTCHAR ch-156
ENCODING 156
SWIDTH 562 0
DWIDTH 9 0
BBX 9 16 0 -3
BITMAP
0000
0200
0100
7080
4000
7000
4000
4000
0e00
1000
0c00
0200
9c00
4000
2000
0000
ENDCHAR
STARTCHAR ch-157
ENCODING 157
SWIDTH 562 0
DWIDTH 9 0
BBX 9 16 0 -3
BITMAP
0000
0200
0100
3880
4000
5800
4800
3800
0700
0800
0600
0100
8e00
4000
2000
0000
ENDCHAR
STARTCHAR ch-158
ENCODING 158
SWIDTH 562 0
DWIDTH 9 0
BBX 9 16 0 -3
BITMAP
0000
0200
0100
7080
4800
7000
5000
4800
0700
0800
0600
0100
8e00
4000
2000
0000
ENDCHAR
STARTCHAR ch-159
ENCODING 159
SWIDTH 562 0
DWIDTH 9 0
BBX 9 16 0 -3
BITMAP
0000
0200
0100
4880
4800
4800
4800
3000
0700
0800
0600
0100
8e00
4000
2000
0000
ENDCHAR
STARTCHAR ch-160
ENCODING 160
SWIDTH 562 0
DWIDTH 9 0
BBX 9 16 0 -3
BITMAP
0000
0380
0380
0380
0000
0000
0000
0000
0000
0000
0000
0000
e000
e000
e000
0000
ENDCHAR
STARTCHAR ch-161
ENCODING 161
SWIDTH 562 0
DWIDTH 9 0
BBX 9 16 0 -3
BITMAP
0000
0000
0000
1c00
1c00
1c00
0000
0800
0800
1c00
1c00
1c00
1c00
1c00
0000
0000
ENDCHAR
STARTCHAR ch-162
ENCODING 162
SWIDTH 562 0
DWIDTH 9 0
BBX 8 16 0 -3
BITMAP
0000
0000
0c00
0c00
1e00
3f00
6d00
6c00
6c00
6c00
6c00
3f00
1e00
0c00
0c00
0000
ENDCHAR
STARTCHAR ch-163
ENCODING 163
SWIDTH 562 0
DWIDTH 9 0
BBX 8 16 0 -3
BITMAP
0000
0000
0e00
1b00
1b00
1900
7000
7e00
3e00
3000
3000
fb00
7f00
0000
0000
0000
ENDCHAR
STARTCHAR ch-164
ENCODING 164
SWIDTH 562 0
DWIDTH 9 0
BBX 8 16 0 -3
BITMAP
0000
0000
0000
6300
7f00
2a00
3600
3600
3600
3600
2a00
7f00
6300
0000
0000
0000
ENDCHAR
STARTCHAR ch-165
ENCODING 165
SWIDTH 562 0
DWIDTH 9 0
BBX 8 16 0 -3
BITMAP
0000
0000
c300
c300
c300
6200
6600
3c00
ff00
1800
ff00
1800
1800
0000
0000
0000
ENDCHAR
STARTCHAR ch-166
ENCODING 166
SWIDTH 562 0
DWIDTH 9 0
BBX 5 16 0 -3
BITMAP
0000
1800
1800
1800
1800
1800
1800
0000
0000
1800
1800
1800
1800
1800
1800
1800
ENDCHAR
STARTCHAR ch-167
ENCODING 167
SWIDTH 562 0
DWIDTH 9 0
BBX 8 16 0 -3
BITMAP
0000
0000
3e00
7300
6700
6000
7e00
6300
6300
3f00
0300
7300
6700
3e00
0000
0000
ENDCHAR
STARTCHAR ch-168
ENCODING 168
SWIDTH 562 0
DWIDTH 9 0
BBX 7 16 0 -3
BITMAP
0000
0000
3600
3600
0000
0000
0000
0000
0000
0000
0000
0000
0000
0000
0000
0000
ENDCHAR
STARTCHAR ch-169
ENCODING 169
SWIDTH 562 0
DWIDTH 9 0
BBX 9 16 0 -3
BITMAP
0000
0000
1c00
6300
4100
9c80
9480
9080
9080
9480
9c80
4100
6300
1c00
0000
0000
ENDCHAR
STARTCHAR ch-170
ENCODING 170
SWIDTH 562 0
DWIDTH 9 0
BBX 8 16 0 -3
BITMAP
0000
1e00
0600
1e00
1600
1f00
0000
3f00
0000
0000
0000
0000
0000
0000
0000
0000
ENDCHAR
STARTCHAR ch-171
ENCODING 171
SWIDTH 562 0
DWIDTH 9 0
BBX 8 16 0 -3
BITMAP
0000
0100
0300
0600
0d00
1b00
3600
6c00
6c00
3600
1b00
0d00
0600
0300
0100
0000
ENDCHAR
STARTCHAR ch-172
ENCODING 172
SWIDTH 562 0
DWIDTH 9 0
BBX 8 16 0 -3
BITMAP
0000
0000
0000
0000
ff00
ff00
0300
0300
0300
0300
0000
0000
0000
0000
0000
0000
ENDCHAR
STARTCHAR ch-173
ENCODING 173
SWIDTH 562 0
DWIDTH 9 0
BBX 7 16 0 -3
BITMAP
0000
0000
0000
0000
0000
0000
0000
3e00
3e00
0000
0000
0000
0000
0000
0000
0000
ENDCHAR
STARTCHAR ch-174
ENCODING 174
SWIDTH 562 0
DWIDTH 9 0
BBX 9 16 0 -3
BITMAP
0000
0000
1c00
6300
4100
9c80
9480
9880
9480
9480
9680
4100
6300
1c00
0000
0000
ENDCHAR
STARTCHAR ch-175
ENCODING 175
SWIDTH 562 0
DWIDTH 9 0
BBX 8 16 0 -3
BITMAP
0000
ff00
ff00
0000
0000
0000
0000
0000
0000
0000
0000
0000
0000
0000
0000
0000
ENDCHAR
STARTCHAR ch-176
ENCODING 176
SWIDTH 562 0
DWIDTH 9 0
BBX 7 16 0 -3
BITMAP
0000
1c00
3600
3600
3600
1c00
0000
0000
0000
0000
0000
0000
0000
0000
0000
0000
ENDCHAR
STARTCHAR ch-177
ENCODING 177
SWIDTH 562 0
DWIDTH 9 0
BBX 8 16 0 -3
BITMAP
0000
0000
0000
1800
1800
1800
ff00
ff00
1800
1800
ff00
ff00
0000
0000
0000
0000
ENDCHAR
STARTCHAR ch-178
ENCODING 178
SWIDTH 562 0
DWIDTH 9 0
BBX 7 16 0 -3
BITMAP
0000
1e00
3600
0c00
1800
3e00
0000
0000
0000
0000
0000
0000
0000
0000
0000
0000
ENDCHAR
STARTCHAR ch-179
ENCODING 179
SWIDTH 562 0
DWIDTH 9 0
BBX 7 16 0 -3
BITMAP
0000
1c00
3600
0c00
3600
1c00
0000
0000
0000
0000
0000
0000
0000
0000
0000
0000
ENDCHAR
STARTCHAR ch-180
ENCODING 180
SWIDTH 562 0
DWIDTH 9 0
BBX 7 16 0 -3
BITMAP
0200
0e00
1c00
3000
6000
0000
0000
0000
0000
0000
0000
0000
0000
0000
0000
0000
ENDCHAR
STARTCHAR ch-181
ENCODING 181
SWIDTH 562 0
DWIDTH 9 0
BBX 8 16 0 -3
BITMAP
0000
0000
0000
0000
0000
3300
3300
3300
3300
3300
2200
7300
ff00
c300
8000
0000
ENDCHAR
STARTCHAR ch-182
ENCODING 182
SWIDTH 562 0
DWIDTH 9 0
BBX 9 16 0 -3
BITMAP
0000
0000
7d80
cd80
cd00
cd00
cd00
6d00
7d00
0d00
0d00
0d00
0d00
0000
0000
0000
ENDCHAR
STARTCHAR ch-183
ENCODING 183
SWIDTH 562 0
DWIDTH 9 0
BBX 6 16 0 -3
BITMAP
0000
0000
0000
0000
0000
0000
0000
1c00
1c00
1c00
0000
0000
0000
0000
0000
0000
ENDCHAR
STARTCHAR ch-184
ENCODING 184
SWIDTH 562 0
DWIDTH 9 0
BBX 7 16 0 -3
BITMAP
0000
0000
0000
0000
0000
0000
0000
0000
0000
0000
0000
0000
0800
0e00
2600
3e00
ENDCHAR
STARTCHAR ch-185
ENCODING 185
SWIDTH 562 0
DWIDTH 9 0
BBX 6 16 0 -3
BITMAP
0000
1800
3800
1800
1800
3c00
0000
0000
0000
0000
0000
0000
0000
0000
0000
0000
ENDCHAR
STARTCHAR ch-186
ENCODING 186
SWIDTH 562 0
DWIDTH 9 0
BBX 7 16 0 -3
BITMAP
0000
1c00
3600
3600
3600
1c00
0000
3e00
0000
0000
0000
0000
0000
0000
0000
0000
ENDCHAR
STARTCHAR ch-187
ENCODING 187
SWIDTH 562 0
DWIDTH 9 0
BBX 8 16 0 -3
BITMAP
0000
4000
6000
3000
5800
6c00
3600
1b00
1b00
3600
6c00
5800
3000
6000
4000
0000
ENDCHAR
STARTCHAR ch-188
ENCODING 188
SWIDTH 562 0
DWIDTH 9 0
BBX 9 16 0 -3
BITMAP
0000
6000
e000
6180
6300
6600
ec00
1b00
3600
6c00
ca00
1f80
0600
0600
0600
0000
ENDCHAR
STARTCHAR ch-189
ENCODING 189
SWIDTH 562 0
DWIDTH 9 0
BBX 9 16 0 -3
BITMAP
0000
6000
e000
6180
6300
6600
ec00
1800
3600
7f00
d300
0600
0600
1f80
0000
0000
ENDCHAR
STARTCHAR ch-190
ENCODING 190
SWIDTH 562 0
DWIDTH 9 0
BBX 8 16 0 -3
BITMAP
0000
e000
1000
7100
3300
e600
1c00
1a00
3700
6c00
ca00
1f00
0600
0600
0600
0000
ENDCHAR
STARTCHAR ch-191
ENCODING 191
SWIDTH 562 0
DWIDTH 9 0
BBX 7 16 0 -3
BITMAP
0000
0000
0000
1c00
1c00
0000
0800
1800
1800
3000
6000
6600
6600
3c00
0000
0000
ENDCHAR
STARTCHAR ch-192
ENCODING 192
SWIDTH 562 0
DWIDTH 9 0
BBX 8 16 0 -3
BITMAP
7000
7c00
1c00
1c00
1c00
2600
2600
2600
7f00
4300
4300
6300
6300
0000
0000
0000
ENDCHAR
STARTCHAR ch-193
ENCODING 193
SWIDTH 562 0
DWIDTH 9 0
BBX 8 16 0 -3
BITMAP
0700
0f00
1c00
1c00
1c00
2600
2600
2600
7f00
4300
4300
6300
6300
0000
0000
0000
ENDCHAR
STARTCHAR ch-194
ENCODING 194
SWIDTH 562 0
DWIDTH 9 0
BBX 8 16 0 -3
BITMAP
1800
3e00
6300
5d00
1c00
2600
2600
2600
7f00
4300
4300
6300
6300
0000
0000
0000
ENDCHAR
STARTCHAR ch-195
ENCODING 195
SWIDTH 562 0
DWIDTH 9 0
BBX 8 16 0 -3
BITMAP
3900
7f00
4700
0800
1c00
2600
2600
2600
7f00
4300
4300
6300
6300
0000
0000
0000
ENDCHAR
STARTCHAR ch-196
ENCODING 196
SWIDTH 562 0
DWIDTH 9 0
BBX 8 16 0 -3
BITMAP
0000
6300
6b00
1c00
1c00
2600
2600
2600
7f00
4300
4300
6300
6300
0000
0000
0000
ENDCHAR
STARTCHAR ch-197
ENCODING 197
SWIDTH 562 0
DWIDTH 9 0
BBX 8 16 0 -3
BITMAP
3e00
2200
6300
3e00
1c00
2600
2600
2600
7f00
4300
4300
6300
6300
0000
0000
0000
ENDCHAR
STARTCHAR ch-198
ENCODING 198
SWIDTH 562 0
DWIDTH 9 0
BBX 9 16 0 -3
BITMAP
0000
0000
1f00
1f00
1800
2800
2c00
2f00
7f00
4400
4400
6680
6780
0000
0000
0000
ENDCHAR
STARTCHAR ch-199
ENCODING 199
SWIDTH 562 0
DWIDTH 9 0
BBX 8 16 0 -3
BITMAP
0000
0000
1f00
3100
6000
6000
6000
6000
6000
6000
6000
3100
1f00
0600
1600
1e00
ENDCHAR
STARTCHAR ch-200
ENCODING 200
SWIDTH 562 0
DWIDTH 9 0
BBX 7 16 0 -3
BITMAP
7000
1800
0e00
7e00
6000
6000
6000
7c00
6000
6000
6000
6000
7e00
0000
0000
0000
ENDCHAR
STARTCHAR ch-201
ENCODING 201
SWIDTH 562 0
DWIDTH 9 0
BBX 7 16 0 -3
BITMAP
0e00
1800
7000
7e00
6000
6000
6000
7c00
6000
6000
6000
6000
7e00
0000
0000
0000
ENDCHAR
STARTCHAR ch-202
ENCODING 202
SWIDTH 562 0
DWIDTH 9 0
BBX 7 16 0 -3
BITMAP
1c00
3600
0000
7e00
6000
6000
6000
7c00
6000
6000
6000
6000
7e00
0000
0000
0000
ENDCHAR
STARTCHAR ch-203
ENCODING 203
SWIDTH 562 0
DWIDTH 9 0
BBX 7 16 0 -3
BITMAP
3600
3600
0000
7e00
6000
6000
6000
7c00
6000
6000
6000
6000
7e00
0000
0000
0000
ENDCHAR
STARTCHAR ch-204
ENCODING 204
SWIDTH 562 0
DWIDTH 9 0
BBX 7 16 0 -3
BITMAP
3800
1c00
0600
7e00
1800
1800
1800
1800
1800
1800
1800
1800
7e00
0000
0000
0000
ENDCHAR
STARTCHAR ch-205
ENCODING 205
SWIDTH 562 0
DWIDTH 9 0
BBX 7 16 0 -3
BITMAP
1c00
3800
6000
7e00
1800
1800
1800
1800
1800
1800
1800
1800
7e00
0000
0000
0000
ENDCHAR
STARTCHAR ch-206
ENCODING 206
SWIDTH 562 0
DWIDTH 9 0
BBX 7 16 0 -3
BITMAP
3c00
6600
0000
7e00
1800
1800
1800
1800
1800
1800
1800
1800
7e00
0000
0000
0000
ENDCHAR
STARTCHAR ch-207
ENCODING 207
SWIDTH 562 0
DWIDTH 9 0
BBX 7 16 0 -3
BITMAP
6600
6600
0000
7e00
1800
1800
1800
1800
1800
1800
1800
1800
7e00
0000
0000
0000
ENDCHAR
STARTCHAR ch-208
ENCODING 208
SWIDTH 562 0
DWIDTH 9 0
BBX 8 16 0 -3
BITMAP
0000
0000
7c00
6600
6300
6300
fb00
fb00
6300
6300
6300
6600
7c00
0000
0000
0000
ENDCHAR
STARTCHAR ch-209
ENCODING 209
SWIDTH 562 0
DWIDTH 9 0
BBX 8 16 0 -3
BITMAP
3b00
6e00
0000
7100
7100
5900
5900
4d00
4d00
4d00
4700
4700
4300
0000
0000
0000
ENDCHAR
STARTCHAR ch-210
ENCODING 210
SWIDTH 562 0
DWIDTH 9 0
BBX 8 16 0 -3
BITMAP
c000
7000
0800
3c00
6600
c300
c300
c300
c300
c300
c300
6600
3c00
0000
0000
0000
ENDCHAR
STARTCHAR ch-211
ENCODING 211
SWIDTH 562 0
DWIDTH 9 0
BBX 8 16 0 -3
BITMAP
0300
0e00
1000
3c00
6600
c300
c300
c300
c300
c300
c300
6600
3c00
0000
0000
0000
ENDCHAR
STARTCHAR ch-212
ENCODING 212
SWIDTH 562 0
DWIDTH 9 0
BBX 8 16 0 -3
BITMAP
3c00
6600
4200
3c00
6600
c300
c300
c300
c300
c300
c300
6600
3c00
0000
0000
0000
ENDCHAR
STARTCHAR ch-213
ENCODING 213
SWIDTH 562 0
DWIDTH 9 0
BBX 8 16 0 -3
BITMAP
3b00
6b00
4e00
3c00
6600
c300
c300
c300
c300
c300
c300
6600
3c00
0000
0000
0000
ENDCHAR
STARTCHAR ch-214
ENCODING 214
SWIDTH 562 0
DWIDTH 9 0
BBX 8 16 0 -3
BITMAP
6600
6600
0000
3c00
6600
c300
c300
c300
c300
c300
c300
6600
3c00
0000
0000
0000
ENDCHAR
STARTCHAR ch-215
ENCODING 215
SWIDTH 562 0
DWIDTH 9 0
BBX 9 16 0 -3
BITMAP
0000
0000
0000
0000
0000
c180
6300
3600
1c00
1c00
3600
6300
c180
0000
0000
0000
ENDCHAR
STARTCHAR ch-216
ENCODING 216
SWIDTH 562 0
DWIDTH 9 0
BBX 9 16 0 -3
BITMAP
0000
0000
3d80
6700
c300
c700
cd00
cb00
db00
f300
e300
6600
fc00
8000
0000
0000
ENDCHAR
STARTCHAR ch-217
ENCODING 217
SWIDTH 562 0
DWIDTH 9 0
BBX 8 16 0 -3
BITMAP
3000
1800
0c00
6300
6300
6300
6300
6300
6300
6300
6300
3600
1c00
0000
0000
0000
ENDCHAR
STARTCHAR ch-218
ENCODING 218
SWIDTH 562 0
DWIDTH 9 0
BBX 8 16 0 -3
BITMAP
0600
0c00
1800
6300
6300
6300
6300
6300
6300
6300
6300
3600
1c00
0000
0000
0000
ENDCHAR
STARTCHAR ch-219
ENCODING 219
SWIDTH 562 0
DWIDTH 9 0
BBX 8 16 0 -3
BITMAP
1c00
3600
0000
6300
6300
6300
6300
6300
6300
6300
6300
3600
1c00
0000
0000
0000
ENDCHAR
STARTCHAR ch-220
ENCODING 220
SWIDTH 562 0
DWIDTH 9 0
BBX 8 16 0 -3
BITMAP
3600
3600
0000
6300
6300
6300
6300
6300
6300
6300
6300
3600
1c00
0000
0000
0000
ENDCHAR
STARTCHAR ch-221
ENCODING 221
SWIDTH 562 0
DWIDTH 9 0
BBX 8 16 0 -3
BITMAP
0c00
1800
3000
c300
c300
6200
6600
3c00
1800
1800
1800
1800
1800
0000
0000
0000
ENDCHAR
STARTCHAR ch-222
ENCODING 222
SWIDTH 562 0
DWIDTH 9 0
BBX 8 16 0 -3
BITMAP
0000
7000
6000
7e00
6300
6300
6300
6600
7c00
6000
6000
6000
6000
0000
0000
0000
ENDCHAR
STARTCHAR ch-223
ENCODING 223
SWIDTH 562 0
DWIDTH 9 0
BBX 8 16 0 -3
BITMAP
0000
1c00
3600
6300
6300
6300
6600
6e00
6600
6300
6300
6700
6e00
6000
4000
0000
ENDCHAR
STARTCHAR ch-224
ENCODING 224
SWIDTH 562 0
DWIDTH 9 0
BBX 8 16 0 -3
BITMAP
2000
3800
1c00
0200
3e00
6300
0300
0300
3f00
6300
6300
6700
3b00
0000
0000
0000
ENDCHAR
STARTCHAR ch-225
ENCODING 225
SWIDTH 562 0
DWIDTH 9 0
BBX 8 16 0 -3
BITMAP
0200
0e00
1c00
2000
3e00
6300
0300
0300
3f00
6300
6300
6700
3b00
0000
0000
0000
ENDCHAR
STARTCHAR ch-226
ENCODING 226
SWIDTH 562 0
DWIDTH 9 0
BBX 8 16 0 -3
BITMAP
0800
1c00
3600
0000
3e00
6300
0300
0300
3f00
6300
6300
6700
3b00
0000
0000
0000
ENDCHAR
STARTCHAR ch-227
ENCODING 227
SWIDTH 562 0
DWIDTH 9 0
BBX 8 16 0 -3
BITMAP
0000
3b00
6e00
0000
3e00
6300
0300
0300
3f00
6300
6300
6700
3b00
0000
0000
0000
ENDCHAR
STARTCHAR ch-228
ENCODING 228
SWIDTH 562 0
DWIDTH 9 0
BBX 8 16 0 -3
BITMAP
0000
6300
6300
0000
3e00
6300
0300
0300
3f00
6300
6300
6700
3b00
0000
0000
0000
ENDCHAR
STARTCHAR ch-229
ENCODING 229
SWIDTH 562 0
DWIDTH 9 0
BBX 8 16 0 -3
BITMAP
1e00
3300
3300
3300
1e00
3f00
6300
0300
3f00
6300
6300
6700
3b00
0000
0000
0000
ENDCHAR
STARTCHAR ch-230
ENCODING 230
SWIDTH 562 0
DWIDTH 9 0
BBX 9 16 0 -3
BITMAP
0000
0000
0000
0000
7700
dd80
1980
1b00
7e00
d800
dc00
dd80
7b00
0000
0000
0000
ENDCHAR
STARTCHAR ch-231
ENCODING 231
SWIDTH 562 0
DWIDTH 9 0
BBX 8 16 0 -3
BITMAP
0000
0000
0000
0000
1e00
3300
6300
6000
6000
6000
6000
3300
1e00
0c00
2400
3c00
ENDCHAR
STARTCHAR ch-232
ENCODING 232
SWIDTH 562 0
DWIDTH 9 0
BBX 8 16 0 -3
BITMAP
2000
3800
1c00
0200
1e00
3300
6300
6300
7f00
6000
6000
3300
1e00
0000
0000
0000
ENDCHAR
STARTCHAR ch-233
ENCODING 233
SWIDTH 562 0
DWIDTH 9 0
BBX 8 16 0 -3
BITMAP
0200
0e00
1c00
3000
1e00
3300
6300
6300
7f00
6000
6000
3300
1e00
0000
0000
0000
ENDCHAR
STARTCHAR ch-234
ENCODING 234
SWIDTH 562 0
DWIDTH 9 0
BBX 8 16 0 -3
BITMAP
0c00
1e00
3300
0000
1e00
3300
6300
6300
7f00
6000
6000
3300
1e00
0000
0000
0000
ENDCHAR
STARTCHAR ch-235
ENCODING 235
SWIDTH 562 0
DWIDTH 9 0
BBX 8 16 0 -3
BITMAP
0000
3600
3600
0000
1e00
3300
6300
6300
7f00
6000
6000
3300
1e00
0000
0000
0000
ENDCHAR
STARTCHAR ch-236
ENCODING 236
SWIDTH 562 0
DWIDTH 9 0
BBX 8 16 0 -3
BITMAP
0000
7000
1c00
0400
f800
1800
1800
1800
1800
1800
1800
1800
ff00
0000
0000
0000
ENDCHAR
STARTCHAR ch-237
ENCODING 237
SWIDTH 562 0
DWIDTH 9 0
BBX 8 16 0 -3
BITMAP
0000
1c00
7000
8000
f800
1800
1800
1800
1800
1800
1800
1800
ff00
0000
0000
0000
ENDCHAR
STARTCHAR ch-238
ENCODING 238
SWIDTH 562 0
DWIDTH 9 0
BBX 8 16 0 -3
BITMAP
1000
3800
6c00
0000
f800
1800
1800
1800
1800
1800
1800
1800
ff00
0000
0000
0000
ENDCHAR
STARTCHAR ch-239
ENCODING 239
SWIDTH 562 0
DWIDTH 9 0
BBX 8 16 0 -3
BITMAP
0000
6c00
6c00
0000
f800
1800
1800
1800
1800
1800
1800
1800
ff00
0000
0000
0000
ENDCHAR
STARTCHAR ch-240
ENCODING 240
SWIDTH 562 0
DWIDTH 9 0
BBX 9 16 0 -3
BITMAP
0000
0300
0300
3f80
0300
1f00
3300
6300
6300
6300
6300
3700
1b00
0000
0000
0000
ENDCHAR
STARTCHAR ch-241
ENCODING 241
SWIDTH 562 0
DWIDTH 9 0
BBX 8 16 0 -3
BITMAP
0100
3b00
6e00
8000
6e00
7700
6300
6300
6300
6300
6300
6300
6300
0000
0000
0000
ENDCHAR
STARTCHAR ch-242
ENCODING 242
SWIDTH 562 0
DWIDTH 9 0
BBX 9 16 0 -3
BITMAP
2000
3800
1c00
0200
3c00
6600
c300
c300
c300
c300
c300
6600
3c00
0000
0000
0000
ENDCHAR
STARTCHAR ch-243
ENCODING 243
SWIDTH 562 0
DWIDTH 9 0
BBX 8 16 0 -3
BITMAP
0400
1c00
3800
4000
3c00
6600
c300
c300
c300
c300
c300
6600
3c00
0000
0000
0000
ENDCHAR
STARTCHAR ch-244
ENCODING 244
SWIDTH 562 0
DWIDTH 9 0
BBX 8 16 0 -3
BITMAP
1800
3c00
6600
0000
3c00
6600
c300
c300
c300
c300
c300
6600
3c00
0000
0000
0000
ENDCHAR
STARTCHAR ch-245
ENCODING 245
SWIDTH 562 0
DWIDTH 9 0
BBX 8 16 0 -3
BITMAP
0000
7600
dc00
0000
3c00
6600
c300
c300
c300
c300
c300
6600
3c00
0000
0000
0000
ENDCHAR
STARTCHAR ch-246
ENCODING 246
SWIDTH 562 0
DWIDTH 9 0
BBX 8 16 0 -3
BITMAP
0000
6600
6600
0000
3c00
6600
c300
c300
c300
c300
c300
6600
3c00
0000
0000
0000
ENDCHAR
STARTCHAR ch-247
ENCODING 247
SWIDTH 562 0
DWIDTH 9 0
BBX 8 16 0 -3
BITMAP
0000
0000
0000
1c00
1c00
0000
0000
7f00
7f00
0000
0000
1c00
1c00
0000
0000
0000
ENDCHAR
STARTCHAR ch-248
ENCODING 248
SWIDTH 562 0
DWIDTH 9 0
BBX 9 16 0 -3
BITMAP
0000
0000
0000
0000
3d80
6700
c700
cf00
db00
d300
f300
6600
fc00
8000
0000
0000
ENDCHAR
STARTCHAR ch-249
ENCODING 249
SWIDTH 562 0
DWIDTH 9 0
BBX 8 16 0 -3
BITMAP
0000
6000
3800
1c00
0200
6300
6300
6300
6300
6300
6300
7700
3b00
0000
0000
0000
ENDCHAR
STARTCHAR ch-250
ENCODING 250
SWIDTH 562 0
DWIDTH 9 0
BBX 8 16 0 -3
BITMAP
0000
0300
0e00
1c00
2000
6300
6300
6300
6300
6300
6300
7700
3b00
0000
0000
0000
ENDCHAR
STARTCHAR ch-251
ENCODING 251
SWIDTH 562 0
DWIDTH 9 0
BBX 8 16 0 -3
BITMAP
0000
0c00
1e00
3300
0000
6300
6300
6300
6300
6300
6300
7700
3b00
0000
0000
0000
ENDCHAR
STARTCHAR ch-252
ENCODING 252
SWIDTH 562 0
DWIDTH 9 0
BBX 8 16 0 -3
BITMAP
0000
0000
3600
3600
0000
6300
6300
6300
6300
6300
6300
7700
3b00
0000
0000
0000
ENDCHAR
STARTCHAR ch-253
ENCODING 253
SWIDTH 562 0
DWIDTH 9 0
BBX 8 16 0 -3
BITMAP
0200
0e00
1c00
3000
4300
6300
6100
3300
3200
3200
1c00
1c00
0c00
0800
1800
3800
ENDCHAR
STARTCHAR ch-254
ENCODING 254
SWIDTH 562 0
DWIDTH 9 0
BBX 8 16 0 -3
BITMAP
0000
f800
6000
6000
6000
7c00
7600
6300
6300
6300
6300
6600
7c00
6000
6000
6000
ENDCHAR
STARTCHAR ch-255
ENCODING 255
SWIDTH 562 0
DWIDTH 9 0
BBX 8 16 0 -3
BITMAP
0000
3600
3600
0000
6300
6300
6100
3300
3200
3200
1c00
1c00
0c00
0800
1800
3800
ENDCHAR
ENDFONT
